PathFileType	4	(X/Y/Z)	D:\TRACE\spot_10-12-23\spot_arm_body_motion_3_4-v60.trc
DataRate	CameraRate	NumFrames	NumMarkers	Units	OrigDataRate	OrigDataStartFrame	OrigNumFrames
100.00	100.00	      17	9	mm	100.00	4376	      7000
Frame#	Time	front left toe			Front right toe			aft left toe			aft right toe			Arm			FL body			FR body			AL Body			AR Body			
		X1	Y1	Z1	X2	Y2	Z2	X3	Y3	Z3	X4	Y4	Z4	X5	Y5	Z5	X6	Y6	Z6	X7	Y7	Z7	X8	Y8	Z8	X9	Y9	Z9	

4376	43.750	-208.67274	36.38970	-391.40506	214.64223	37.52982	-346.88089	-206.55763	7.86968	237.87981	186.46222	11.69389	146.62817	61.01001	863.26721	-695.93573	-91.62183	613.34119	-413.99045	60.74583	618.04169	-412.82785	-100.13499	536.70917	466.98071	50.29410	534.91418	470.03439	
4377	43.760	-208.58755	35.75043	-391.84903	214.47818	37.53412	-346.84955	-206.87633	7.93828	237.89537	186.53464	11.65996	146.62636	61.33961	863.30182	-695.84888	-93.39467	614.47760	-414.79288	58.88447	618.75879	-413.61731	-101.90052	537.73132	466.19803	48.50081	535.45593	469.27313	
4378	43.770	-208.77158	35.78579	-391.87918	214.31557	37.53862	-346.81277	-207.23152	7.75267	237.86693	186.16136	11.67582	146.42758	61.85546	863.28851	-695.92474	-94.82252	615.57446	-415.34250	57.23168	619.87439	-414.67758	-103.60184	538.65735	465.20944	47.21846	536.11078	468.46262	
4379	43.780	-208.85815	35.77098	-391.96094	214.15424	37.54285	-346.77100	-207.44930	7.68852	237.80435	185.65407	11.77919	146.31119	62.66857	863.68530	-696.25433	-96.28464	616.82568	-416.22238	55.94884	620.82111	-415.25461	-104.93139	539.60474	464.78314	46.03708	537.03638	467.94571	
4380	43.790	-209.05238	35.71902	-392.05884	213.99396	37.54636	-346.72479	-207.61838	7.76573	237.68092	185.41574	11.84953	146.01738	63.06115	864.20404	-696.42719	-97.60673	618.00708	-417.22327	54.49247	622.27679	-416.54352	-106.50461	540.79401	463.87360	44.32172	538.17969	466.84219	
4381	43.800	-209.44203	35.69408	-392.25949	213.83453	37.54868	-346.67450	-207.94511	7.67639	237.54422	185.02515	11.84129	145.89551	63.04079	864.63806	-696.65833	-98.39281	618.95245	-418.13638	53.79012	623.01007	-416.91367	-108.35695	541.75836	462.57977	43.14716	539.30756	465.87204	
4382	43.810	-209.63829	35.53529	-392.58319	213.67580	37.54936	-346.62073	-208.25761	7.50906	237.43134	184.67920	12.00468	145.92204	62.77733	865.00464	-697.05072	-99.33378	619.95581	-419.05487	53.01281	624.06122	-417.82773	-108.29259	542.89984	461.69919	41.70095	540.37268	465.09116	
4383	43.820	-209.89365	35.34677	-392.79840	213.51756	37.54793	-346.56381	-208.62550	7.44864	237.23581	184.48628	12.10311	145.89096	62.01477	865.64417	-697.39160	-99.99664	620.87323	-420.08731	51.89885	625.26685	-419.01331	-109.74170	544.09985	460.70697	40.45838	541.57758	464.10364	
4384	43.830	-210.16153	35.24057	-392.98746	213.35965	37.54393	-346.50436	-209.08403	7.55262	237.04739	184.34653	12.19486	145.85457	61.47330	866.02588	-697.81195	-100.55715	621.71747	-421.10229	51.60422	626.03033	-419.79404	-111.08795	545.01343	459.52835	39.53188	542.89740	463.09500	
4385	43.840	-210.38866	35.15109	-393.21753	213.20183	37.53690	-346.44275	-209.31723	7.60814	236.92152	184.17474	12.35050	145.82837	60.88758	866.40277	-698.17151	-101.25372	622.72961	-422.29352	51.28754	627.18707	-420.94748	-111.38023	546.35327	458.56992	38.34889	543.98792	462.26059	
4386	43.850	-210.68575	35.03350	-393.34381	213.04393	37.52637	-346.37952	-209.50317	7.72060	236.74297	183.98029	12.34808	145.73511	60.22752	866.65796	-698.62854	-101.55319	623.55920	-423.15564	50.40339	628.21381	-421.96713	-112.46020	547.13300	457.72919	37.93584	545.46399	461.04639	
4387	43.860	-211.15929	34.92297	-393.52808	212.88579	37.51189	-346.31506	-209.85512	7.88200	236.52835	183.61343	12.33723	145.45042	59.40981	866.89282	-698.99908	-102.25296	624.29333	-424.36255	50.03236	628.64801	-422.87555	-113.00146	548.76831	456.38327	37.50433	546.61719	460.35406	
4388	43.870	-211.53831	34.78732	-393.59924	212.72720	37.49299	-346.24994	-210.11963	8.00186	236.34947	183.30981	12.36442	145.24460	59.13147	866.86621	-699.31769	-102.93649	624.97992	-425.52487	49.29652	629.57770	-424.09100	-113.24107	549.89008	455.52478	36.78897	548.18744	458.85211	
4389	43.880	-211.77232	34.28022	-393.74796	212.56795	37.46922	-346.18460	-210.32437	8.14677	236.15068	183.02232	12.32281	144.97984	58.77699	866.83972	-699.52545	-103.55223	625.55316	-426.66260	48.62374	630.34698	-425.57785	-113.40910	551.33893	454.47723	36.53762	549.26495	457.69098	
4390	43.890	-212.22859	34.08478	-393.72675	212.40790	37.44011	-346.11954	-210.51883	8.26039	236.03685	182.73698	12.27573	144.74562	58.78370	866.70844	-699.68951	-104.39513	626.11487	-427.91235	48.06870	630.81897	-426.49945	-113.76013	552.63879	453.25827	36.60065	550.77539	456.70221	
4391	43.900	-211.88747	33.48652	-393.80569	212.24680	37.40520	-346.05515	-210.71030	8.38489	235.85579	182.42606	12.20712	144.57254	59.04703	866.38800	-699.98993	-104.89857	626.76501	-428.83411	47.17125	631.62683	-427.89233	-113.92502	553.86157	452.06088	36.50931	552.09430	455.75293	
4392	43.910	-212.87419	33.69065	-393.96976	212.08452	37.36403	-345.99197	-210.97925	8.47101	235.69122	182.03560	12.18301	144.40187	59.15080	866.10400	-700.06683	-105.62407	627.36450	-429.98056	46.72204	632.04395	-429.13666	-113.56469	555.39532	451.07529	35.74624	553.53815	454.26068	
